<svg width="20" height="20" viewBox="0 0 20 20" fill="none" xmlns="http://www.w3.org/2000/svg">
<path d="M14 3C15.1041 3.00313 16.2192 3.25829 17 4C17.7807 4.74171 17.9967 5.95108 18 7V14C17.9967 15.0489 17.7807 16.2583 17 17C16.2192 17.7418 15.1041 17.9969 14 18H6C4.89587 17.9969 3.78074 17.7418 3 17C2.21926 16.2583 2.0033 15.0489 2 14V7C2.0033 5.95108 2.21926 4.74171 3 4C3.78074 3.25829 4.89587 3.00313 6 3H14ZM14 1H6C2.79152 1 0 3.95194 0 7V14C0 17.0481 2.79152 20 6 20H14C17.2085 20 20 17.0481 20 14V7C20 3.95194 17.2085 1 14 1Z" fill="white"/>
<path d="M14.9999 5.99969C14.7668 5.99969 14.1938 6.12919 13.9999 5.99969C13.8061 5.87018 14.0891 6.21504 13.9999 5.99969C13.9107 5.78433 13.9545 5.22832 13.9999 4.99969C14.0454 4.77107 13.8351 4.16452 13.9999 3.99969C14.1648 3.83486 14.7713 4.04516 14.9999 3.99969C15.2285 3.95422 14.7845 3.91048 14.9999 3.99969C15.2153 4.08889 15.8705 4.80587 15.9999 4.99969C16.1295 5.1935 15.9999 4.76659 15.9999 4.99969C16.0003 5.15456 16.0591 5.85655 15.9999 5.99969C15.9408 6.14283 16.1094 5.89018 15.9999 5.99969C15.8904 6.1092 15.1431 5.94057 14.9999 5.99969C15.1548 6.00002 14.8568 6.05879 14.9999 5.99969ZM9.99994 6.99969C10.6216 6.99969 10.4831 7.65433 10.9999 7.99969C11.5168 8.34505 12.762 8.42537 12.9999 8.99969C13.2378 9.574 13.1212 10.3899 12.9999 10.9997C12.8787 11.6093 12.4395 12.5601 11.9999 12.9997C11.5604 13.4393 10.6096 12.8783 9.99994 12.9997C9.39024 13.1209 9.57426 13.2376 8.99994 12.9997C8.42563 12.7618 7.34531 12.5166 6.99994 11.9997C6.65458 11.4828 6.99994 10.6213 6.99994 9.99969C7.00083 9.16639 6.41069 8.58893 6.99994 7.99969C7.58918 7.41045 9.16663 7.00058 9.99994 6.99969ZM9.99994 5.99969C9.06753 5.99969 7.77521 5.48166 6.99994 5.99969C6.22467 6.51771 5.35676 7.13826 4.99994 7.99969C4.64312 8.86112 4.81803 10.0851 4.99994 10.9997C5.18184 11.9141 5.34063 13.3403 5.99994 13.9997C6.65925 14.6589 8.08544 14.8177 8.99994 14.9997C9.91443 15.1816 11.1385 15.3565 11.9999 14.9997C12.8615 14.6428 13.482 13.775 13.9999 12.9997C14.5179 12.2245 13.9999 10.9322 13.9999 9.99969C13.9999 8.74939 13.884 7.8838 12.9999 6.99969C12.1158 6.11557 11.2503 5.99969 9.99994 5.99969Z" fill="white"/>
</svg>
