<svg width="400" height="79" viewBox="0 0 400 79" fill="none" xmlns="http://www.w3.org/2000/svg">
<path d="M117 58.9997C117 58.7418 117.217 58.9997 117 58.9997C117 59.2576 117.217 59.9997 117 59.9997C116.178 59.9997 114.819 60.0857 113 59.9997C111.181 59.9137 109.822 59.9997 109 59.9997C107.918 59.9997 106.472 59.9137 105 59.9997C103.528 60.0857 101.822 59.9997 101 59.9997C100.827 59.9997 101 59.2576 101 58.9997C100.827 58.9997 101 58.7418 101 58.9997C102.256 58.9997 103.437 59.2576 104 58.9997C104.607 58.6988 105 57.6445 105 56.9997C105 56.3549 104.736 55.5472 104 53.9997L99 43.9997H83L80 50.9997C79.4371 52.2893 79 53.968 79 54.9997C79 56.5043 79.9175 57.2259 81 57.9997C82.0825 58.7735 84.0514 58.9997 86 58.9997C86 58.7418 86.2165 58.9997 86 58.9997C86 59.2576 86.2165 59.9997 86 59.9997C85.2205 59.9997 83.4722 60.0857 82 59.9997C80.3545 59.9137 79.2124 59.9997 78 59.9997C76.8308 59.9997 75.5589 59.9137 74 59.9997C72.6143 60.0857 70.9093 59.9997 70 59.9997C69.7834 59.9997 70 59.2576 70 58.9997C69.7834 58.9997 70 58.7418 70 58.9997C71.2124 58.9997 72.1773 58.4726 73 57.9997C73.8227 57.5268 75.2205 57.2033 76 55.9997C76.7794 54.753 77.9175 52.407 79 49.9997L93 18.9997C92.6969 18.9997 93.0866 18.8707 93 18.9997C93.3031 18.9997 93.9567 18.8707 94 18.9997L110 50.9997C111.516 54.0948 112.004 55.839 113 56.9997C114.039 58.1174 115.831 58.9997 117 58.9997ZM84 41.9997H98L91 26.9997L84 41.9997ZM137 55.9997C137.13 55.9997 137.913 55.8278 138 55.9997C138.13 55.9137 138.13 56.1716 138 55.9997C136.398 57.5043 134.429 59.3119 133 59.9997C131.571 60.6445 130.602 60.9997 129 60.9997C127.138 60.9997 125.299 59.8595 124 58.9997C122.744 58.097 122 57.0631 122 54.9997V39.9997C122 38.5811 121.477 38.4726 121 37.9997C120.567 37.5268 120.299 36.9997 119 36.9997C119.087 37.0857 118.957 36.9997 119 36.9997C118.957 36.8707 118 36.1287 118 35.9997C118 35.8707 118.957 36.0857 119 35.9997C118.957 35.9997 119.087 35.8707 119 35.9997C123.07 35.8278 124.961 34.3098 126 30.9997C126.087 30.8278 126.74 29.9997 127 29.9997C127.303 29.9997 127 30.8278 127 30.9997V35.9997C129.036 35.9567 132.276 35.3866 136 34.9997C136.087 34.9997 135.913 35.6558 136 35.9997C136.13 36.3006 136 36.6128 136 36.9997C136 37.3866 136.173 37.6128 136 37.9997C136.173 38.0427 135.87 38.3866 136 37.9997C133.575 37.4409 130.161 37.1287 127 36.9997V52.9997C127 54.6762 128.178 56.183 129 56.9997C129.866 57.7735 130.484 57.9997 132 57.9997C133.819 57.9997 135.398 57.2464 137 55.9997ZM159 55.9997C159.13 55.9997 159.914 55.8278 160 55.9997C160.13 55.9137 160.13 56.1716 160 55.9997C158.398 57.5043 156.429 59.3119 155 59.9997C153.571 60.6445 152.603 60.9997 151 60.9997C149.138 60.9997 147.299 59.8595 146 58.9997C144.745 58.097 144 57.0631 144 54.9997V39.9997C144 38.5811 143.477 38.4726 143 37.9997C142.567 37.5268 142.299 36.9997 141 36.9997C140.957 36.9997 140.087 37.0857 140 36.9997C139.957 36.8707 140 36.1287 140 35.9997C139.957 36.0857 140 35.8707 140 35.9997C140.087 35.8707 140.957 35.9997 141 35.9997C145.071 35.8278 146.961 34.3098 148 30.9997C148.087 30.8278 148.74 29.9997 149 29.9997C149.304 29.9997 149 30.8278 149 30.9997V35.9997C151.036 35.9567 154.277 35.3866 158 34.9997C158.087 34.9997 157.914 35.6558 158 35.9997C158.13 36.3006 158 36.6128 158 36.9997C158 37.3866 158.174 37.6128 158 37.9997C158.174 38.0427 157.87 38.3866 158 37.9997C155.576 37.4409 152.162 37.1287 149 36.9997V52.9997C149 54.6762 149.178 56.183 150 56.9997C150.866 57.7735 152.485 57.9997 154 57.9997C155.819 57.9997 157.398 57.2464 159 55.9997ZM176 60.9997C173.402 60.9997 170.992 60.2033 169 58.9997C167.007 57.753 165.082 56.0631 164 53.9997C162.917 51.8934 163 49.45 163 46.9997C163 44.2055 163.614 41.9341 165 39.9997C166.429 38.0223 167.835 36.9454 170 35.9997C172.208 35.011 174.705 33.9997 177 33.9997C179.641 33.9997 182.051 34.753 184 35.9997C185.992 37.2464 186.961 38.9363 188 40.9997C189.039 43.0201 190 45.6784 190 47.9997C190 50.5789 189.299 51.9793 188 53.9997C186.744 56.0201 185.164 57.882 183 58.9997C180.835 60.0743 178.511 60.9997 176 60.9997ZM178 58.9997C179.905 58.9997 181.004 58.6762 182 56.9997C183.039 55.3232 184 53.2237 184 49.9997C184 47.1196 182.822 44.1491 182 41.9997C181.221 39.8503 180.385 38.1174 179 36.9997C177.657 35.882 176.602 34.9997 175 34.9997C173.051 34.9997 170.995 36.4092 170 37.9997C169.004 39.5902 169 41.9046 169 44.9997C169 47.7939 169.264 49.7644 170 51.9997C170.779 54.192 171.657 56.753 173 57.9997C174.385 59.2464 176.311 58.9997 178 58.9997ZM211 33.9997C211.996 33.9997 213.091 34.3549 214 34.9997C214.909 35.6445 215 37.097 215 37.9997C215 38.8164 214.52 39.4839 214 39.9997C213.523 40.5155 212.866 39.9997 212 39.9997C211.437 39.9997 211.39 40.2147 211 39.9997C210.653 39.7418 210.39 39.4295 210 38.9997C209.61 38.6128 209.303 38.1716 209 37.9997C208.697 37.7847 208.433 37.9997 208 37.9997C207.523 37.9997 206.563 37.6128 206 37.9997C205.48 38.3436 205.126 39.839 204 40.9997V54.9997C204 56.2033 203.653 56.3549 204 56.9997C204.347 57.6016 205.178 58.7418 206 58.9997C206.822 59.2576 208.398 58.9997 210 58.9997C210 58.7418 210.173 58.9997 210 58.9997C210 59.2576 210.173 59.9997 210 59.9997C208.571 59.9997 206.866 60.0427 206 59.9997H201H197C196.393 60.0427 196.082 59.9997 195 59.9997C194.87 59.9997 194 59.2576 194 58.9997C194 58.7418 194.87 58.9997 195 58.9997C196.472 58.9997 197.523 58.6016 198 57.9997C198.477 57.3978 198 56.7622 198 54.9997V41.9997C198 40.6241 198.347 39.6445 198 38.9997C197.697 38.3549 196.736 37.9997 196 37.9997C195.35 37.9997 194.516 38.3549 193 38.9997C193.087 39.2147 192.827 38.9997 193 38.9997C192.87 39.0427 192.913 38.7847 193 38.9997L201 33.9997C201.26 33.9137 201.957 33.9997 202 33.9997C202.433 33.9997 202.567 35.054 203 35.9997C203.433 36.9024 203.913 37.4951 204 38.9997C205.689 37.1082 206.874 35.7305 208 34.9997C209.126 34.2689 210.091 33.9997 211 33.9997ZM249 58.9997C249 58.7418 249.13 58.9997 249 58.9997C249 59.2576 249.13 59.9997 249 59.9997C247.917 59.9997 246.606 60.0427 246 59.9997H243H239C238.35 60.0427 237.082 59.9997 236 59.9997C235.87 59.9997 236 59.2576 236 58.9997C235.87 58.9997 236 58.7418 236 58.9997C237.472 58.9997 238.523 58.6016 239 57.9997C239.476 57.3978 240 56.7622 240 54.9997V44.9997C240 42.5924 239.909 41.1174 239 39.9997C238.134 38.839 236.905 37.9997 235 37.9997C233.874 37.9997 232.169 38.4839 231 38.9997C229.831 39.5155 228.952 40.1399 228 40.9997V54.9997C228 56.7622 228.523 57.3978 229 57.9997C229.476 58.6016 230.527 58.9997 232 58.9997C232 58.7418 232.13 58.9997 232 58.9997C232 59.2576 232.13 59.9997 232 59.9997C230.917 59.9997 229.606 60.0427 229 59.9997H225H221C220.393 60.0427 220.082 59.9997 219 59.9997C218.87 59.9997 219 59.2576 219 58.9997C218.87 58.9997 219 58.7418 219 58.9997C220.472 58.9997 221.523 58.6016 222 57.9997C222.476 57.3978 223 56.7622 223 54.9997V41.9997C223 40.6241 222.346 39.6445 222 38.9997C221.696 38.3549 221.735 37.9997 221 37.9997C220.35 37.9997 218.515 38.3549 217 38.9997C217.086 39.2147 216.826 38.9997 217 38.9997C216.87 39.0427 216.913 38.7847 217 38.9997L225 33.9997C225.26 33.9137 225.956 33.9997 226 33.9997C226.433 33.9997 226.566 35.011 227 35.9997C227.476 36.9454 227.956 38.4522 228 39.9997C231.031 36.4317 234.449 33.9997 238 33.9997C240.381 33.9997 241.657 34.5382 243 35.9997C244.342 37.4183 245 39.5494 245 41.9997V54.9997C245 56.7622 245.523 57.3978 246 57.9997C246.476 58.6016 247.527 58.9997 249 58.9997ZM275 55.9997C274.913 55.8278 275.087 55.9997 275 55.9997C275.087 55.9137 275.13 56.1716 275 55.9997C273.398 57.4612 271.602 59.3119 270 59.9997C268.398 60.6445 266.862 60.9997 265 60.9997C262.359 60.9997 259.949 60.1604 258 58.9997C256.094 57.839 255.039 55.8912 254 53.9997C253.004 52.1082 252 50.192 252 47.9997C252 45.4634 252.744 43.106 254 40.9997C255.256 38.8934 256.835 37.2033 259 35.9997C261.208 34.753 264.315 33.9997 267 33.9997C269.598 33.9997 271.571 34.753 273 35.9997C274.429 37.2464 275 39.5494 275 41.9997C275 43.2464 274.52 43.9997 274 43.9997H258C257.957 44.3866 258 45.2259 258 45.9997C258 49.7825 259.268 52.7644 261 54.9997C262.776 57.192 264.752 57.9997 268 57.9997C269.212 57.9997 270.178 57.2576 271 56.9997C271.822 56.6988 273.614 56.7305 275 55.9997ZM264 35.9997C262.398 35.9997 261.039 36.753 260 37.9997C259.004 39.2033 258.347 40.8503 258 42.9997L269 41.9997C268.913 37.529 266.858 35.9997 264 35.9997ZM306 34.9997C306 34.7418 306.086 34.9997 306 34.9997C306 35.2576 306.086 35.9997 306 35.9997C304.701 35.9997 302.952 35.968 302 36.9997C301.091 38.0314 300.779 39.8934 300 41.9997L292 61.9997C290.441 66.1265 289.429 68.6354 288 70.9997C286.571 73.364 284.472 75.011 283 75.9997C281.527 77.0314 280.775 77.9997 279 77.9997C277.787 77.9997 276.65 77.5155 276 76.9997C275.306 76.5268 275 75.9884 275 74.9997C275 74.1399 275.436 73.4726 276 72.9997C276.52 72.5699 277.221 71.9997 278 71.9997C278.52 71.9997 278.653 72.8707 279 72.9997C279.39 73.1716 279.61 72.7418 280 72.9997C280.433 73.2576 280.696 73.8707 281 73.9997C281.346 74.1287 281.523 73.9997 282 73.9997C282.995 73.9997 284.177 73.8164 285 72.9997C285.865 72.2259 287.091 70.8481 288 68.9997C288.952 67.1513 289.701 64.3957 291 60.9997L281 39.9997C280.047 38.1513 279.563 37.6016 279 36.9997C278.48 36.3978 277.779 35.9997 277 35.9997C276.87 35.9997 276 35.2576 276 34.9997C276 34.7418 276.87 34.9997 277 34.9997C278.125 34.9997 278.393 34.9567 279 34.9997H282H286C286.65 34.9567 287.874 34.9997 289 34.9997C289 34.7418 289.13 34.9997 289 34.9997C289 35.2576 289.13 35.9997 289 35.9997C287.831 35.9997 286.563 35.7847 286 35.9997C285.48 36.1716 285 36.4839 285 36.9997C285 37.3866 285.783 37.6128 286 37.9997L294 54.9997L298 41.9997C298.39 40.882 299 39.7735 299 38.9997C299 36.7213 296.901 35.9997 294 35.9997C293.913 35.9997 294 35.2576 294 34.9997C293.913 34.9997 294 34.7418 294 34.9997C295.169 34.9997 296.393 34.9567 297 34.9997H301H303C303.476 34.9567 304.961 34.9997 306 34.9997ZM312 37.9997C312 39.3323 313.091 41.097 314 41.9997C314.953 42.9024 316.225 44.011 318 44.9997C319.559 45.8595 320.178 46.4409 321 46.9997C321.866 47.5585 323.394 48.054 324 48.9997C324.65 49.9454 325 50.6671 325 51.9997C325 53.4612 324.736 54.753 324 55.9997C323.265 57.2464 321.473 58.2259 320 58.9997C318.571 59.7735 316.993 60.9997 315 60.9997C312.619 60.9997 310.993 60.2033 309 58.9997C308.74 58.7418 308 58.2576 308 57.9997V51.9997C307.784 51.9997 308 51.8707 308 51.9997C308.26 51.9567 308.957 51.9137 309 51.9997C309.736 54.1491 310.528 55.6241 312 56.9997C313.516 58.3753 315.311 58.9997 317 58.9997C318.083 58.9997 318.394 58.5585 319 57.9997C319.607 57.4409 320 57.1174 320 55.9997C320 54.3662 319.953 52.9454 319 51.9997C318.048 51.011 316.819 49.9454 315 48.9997C313.528 48.2259 311.823 47.5155 311 46.9997C310.178 46.4409 309.607 45.9024 309 44.9997C308.437 44.054 308 43.3753 308 41.9997C308 39.5494 309.225 37.2033 311 35.9997C312.819 34.7961 315.446 33.9997 318 33.9997C319.689 33.9997 321.225 34.3549 323 34.9997C323.39 35.1716 323 35.6988 323 35.9997C323 36.9884 323.044 37.4409 323 37.9997V40.9997C323 41.1287 323.26 41.9997 323 41.9997C322.74 41.9997 322 41.1287 322 40.9997C322 40.1399 321.693 39.9024 321 38.9997C320.307 38.054 320.083 36.6016 319 35.9997C317.918 35.3978 316.126 35.9997 315 35.9997C313.008 35.9997 312 36.1082 312 37.9997ZM348 55.9997C347.913 55.8278 348.13 55.9997 348 55.9997C348.13 55.9137 348.13 56.1716 348 55.9997C346.397 57.5043 345.429 59.3119 344 59.9997C342.571 60.6445 340.602 60.9997 339 60.9997C337.137 60.9997 335.299 59.8595 334 58.9997C332.744 58.097 332 57.0631 332 54.9997V39.9997C332 38.5811 332.476 38.4726 332 37.9997C331.566 37.5268 330.299 36.9997 329 36.9997C329.086 37.0857 328.956 36.9997 329 36.9997C328.956 36.8707 329 36.1287 329 35.9997C328.956 36.0857 329 35.8707 329 35.9997C328.956 35.9997 329.086 35.8707 329 35.9997C333.07 35.8278 335.961 34.3098 337 30.9997C337.086 30.8278 336.74 29.9997 337 29.9997C337.303 29.9997 338 30.8278 338 30.9997V35.9997C340.035 35.9567 342.276 35.3866 346 34.9997C346.086 34.9997 346.913 35.6558 347 35.9997C347.13 36.3006 347 36.6128 347 36.9997C347 37.3866 347.173 37.6128 347 37.9997C346.87 38.3866 346.173 38.0427 346 37.9997C343.575 37.4409 341.161 37.1287 338 36.9997V52.9997C338 54.6762 338.177 56.183 339 56.9997C339.865 57.7735 341.484 57.9997 343 57.9997C344.819 57.9997 346.397 57.2464 348 55.9997ZM374 55.9997C373.913 55.8278 374.087 55.9997 374 55.9997C374.087 55.9137 374.13 56.1716 374 55.9997C372.398 57.4612 370.602 59.3119 369 59.9997C367.398 60.6445 365.862 60.9997 364 60.9997C361.359 60.9997 358.949 60.1604 357 58.9997C355.094 57.839 354.039 55.8912 353 53.9997C352.004 52.1082 351 50.192 351 47.9997C351 45.4634 351.744 43.106 353 40.9997C354.256 38.8934 355.835 37.2033 358 35.9997C360.208 34.753 362.315 33.9997 365 33.9997C367.598 33.9997 369.571 34.753 371 35.9997C372.429 37.2464 374 39.5494 374 41.9997C374 43.2464 373.52 43.9997 373 43.9997H357C356.957 44.3866 357 45.2259 357 45.9997C357 49.7825 358.268 52.7644 360 54.9997C361.776 57.192 363.752 57.9997 367 57.9997C368.212 57.9997 369.178 57.2576 370 56.9997C370.822 56.6988 371.614 56.7305 373 55.9997H374ZM363 35.9997C361.398 35.9997 360.039 36.753 359 37.9997C358.004 39.2033 357.347 40.8503 357 42.9997L367 41.9997C366.913 37.529 365.858 35.9997 363 35.9997ZM395 33.9997C395.995 33.9997 397.091 34.3549 398 34.9997C398.909 35.6445 399 37.097 399 37.9997C399 38.8164 398.52 39.4839 398 39.9997C397.523 40.5155 396.865 39.9997 396 39.9997C395.436 39.9997 395.39 40.2147 395 39.9997C394.653 39.7418 394.39 39.4295 394 38.9997C393.61 38.6128 393.303 38.1716 393 37.9997C392.696 37.7847 392.433 37.9997 392 37.9997C391.523 37.9997 390.563 37.6128 390 37.9997C389.48 38.3436 389.125 39.839 388 40.9997V54.9997C388 56.2033 387.653 56.3549 388 56.9997C388.346 57.6016 389.177 58.7418 390 58.9997C390.822 59.2576 391.397 58.9997 393 58.9997C393.173 58.9997 394 58.7418 394 58.9997C394 59.2576 393.173 59.9997 393 59.9997C391.571 59.9997 390.865 60.0427 390 59.9997H385H381C380.393 60.0427 380.082 59.9997 379 59.9997C378.87 59.9997 378 59.2576 378 58.9997C378 58.7418 378.87 58.9997 379 58.9997C380.472 58.9997 380.523 58.6016 381 57.9997C381.476 57.3978 382 56.7622 382 54.9997V41.9997C382 40.6241 382.346 39.6445 382 38.9997C381.696 38.3549 380.735 37.9997 380 37.9997C379.35 37.9997 378.515 38.3549 377 38.9997C376.826 38.9997 376.086 39.2147 376 38.9997C375.87 39.0427 375.913 38.7847 376 38.9997L385 33.9997C384.956 33.9997 385.26 33.9137 385 33.9997C385.433 33.9997 386.566 35.054 387 35.9997C387.433 36.9024 387.913 37.4951 388 38.9997C389.689 37.1082 390.874 35.7305 392 34.9997C393.125 34.2689 394.091 33.9997 395 33.9997Z" fill="white"/>
<path d="M58 23C58 19.1339 54.1995 16 50 16H10C5.80049 16 2 19.1339 2 23" stroke="url(#paint0_radial_2_769)" stroke-width="3.5" stroke-miterlimit="10"/>
<path d="M4 62C4 65.8657 7.02589 69 11 69H50C53.9741 69 57 65.8657 57 62" stroke="url(#paint1_radial_2_769)" stroke-width="3.5" stroke-miterlimit="10"/>
<path d="M19 27H15V58H19V27Z" fill="url(#paint2_radial_2_769)"/>
<path d="M26 27H22V58H26V27Z" fill="url(#paint3_radial_2_769)"/>
<path d="M32 27H28V58H32V27Z" fill="url(#paint4_radial_2_769)"/>
<path d="M39 27H35V58H39V27Z" fill="url(#paint5_radial_2_769)"/>
<path d="M46 27H42V58H46V27Z" fill="url(#paint6_radial_2_769)"/>
<path d="M19 74H15V79H19V74Z" fill="url(#paint7_radial_2_769)"/>
<path d="M26 74H22V79H26V74Z" fill="url(#paint8_radial_2_769)"/>
<path d="M32 74H28V79H32V74Z" fill="url(#paint9_radial_2_769)"/>
<path d="M39 74H35V79H39V74Z" fill="url(#paint10_radial_2_769)"/>
<path d="M46 74H42V79H46V74Z" fill="url(#paint11_radial_2_769)"/>
<path d="M26 1H22V6H26V1Z" fill="url(#paint12_radial_2_769)"/>
<path d="M32 1H28V6H32V1Z" fill="url(#paint13_radial_2_769)"/>
<path d="M39 1H35V6H39V1Z" fill="url(#paint14_radial_2_769)"/>
<path d="M48 25V21H13V25H48Z" fill="url(#paint15_radial_2_769)"/>
<path d="M48 65V61H13V65H48Z" fill="url(#paint16_radial_2_769)"/>
<path d="M48 12V8H13V12H48Z" fill="url(#paint17_radial_2_769)"/>
<defs>
<radialGradient id="paint0_radial_2_769" cx="0" cy="0" r="1" gradientUnits="userSpaceOnUse" gradientTransform="translate(30 19.5) rotate(90) scale(3.5 28)">
<stop stop-color="#DBBC80"/>
<stop offset="1" stop-color="#AB8219"/>
</radialGradient>
<radialGradient id="paint1_radial_2_769" cx="0" cy="0" r="1" gradientUnits="userSpaceOnUse" gradientTransform="translate(30.4999 65.5) rotate(90) scale(3.50001 26.4999)">
<stop stop-color="#DBBC80"/>
<stop offset="1" stop-color="#AB8219"/>
</radialGradient>
<radialGradient id="paint2_radial_2_769" cx="0" cy="0" r="1" gradientUnits="userSpaceOnUse" gradientTransform="translate(17 42.5) rotate(90) scale(15.5 2.00001)">
<stop stop-color="#DBBC80"/>
<stop offset="1" stop-color="#AB8219"/>
</radialGradient>
<radialGradient id="paint3_radial_2_769" cx="0" cy="0" r="1" gradientUnits="userSpaceOnUse" gradientTransform="translate(24.0001 42.5) rotate(90) scale(15.5 1.99996)">
<stop stop-color="#DBBC80"/>
<stop offset="1" stop-color="#AB8219"/>
</radialGradient>
<radialGradient id="paint4_radial_2_769" cx="0" cy="0" r="1" gradientUnits="userSpaceOnUse" gradientTransform="translate(29.9999 42.5) rotate(90) scale(15.5 1.99996)">
<stop stop-color="#DBBC80"/>
<stop offset="1" stop-color="#AB8219"/>
</radialGradient>
<radialGradient id="paint5_radial_2_769" cx="0" cy="0" r="1" gradientUnits="userSpaceOnUse" gradientTransform="translate(37 42.5) rotate(90) scale(15.5 2.00001)">
<stop stop-color="#DBBC80"/>
<stop offset="1" stop-color="#AB8219"/>
</radialGradient>
<radialGradient id="paint6_radial_2_769" cx="0" cy="0" r="1" gradientUnits="userSpaceOnUse" gradientTransform="translate(43.9999 42.5) rotate(90) scale(15.5 1.99996)">
<stop stop-color="#DBBC80"/>
<stop offset="1" stop-color="#AB8219"/>
</radialGradient>
<radialGradient id="paint7_radial_2_769" cx="0" cy="0" r="1" gradientUnits="userSpaceOnUse" gradientTransform="translate(17 76.5) rotate(90) scale(2.50001 2.00001)">
<stop stop-color="#DBBC80"/>
<stop offset="1" stop-color="#AB8219"/>
</radialGradient>
<radialGradient id="paint8_radial_2_769" cx="0" cy="0" r="1" gradientUnits="userSpaceOnUse" gradientTransform="translate(24.0001 76.5) rotate(90) scale(2.50001 1.99996)">
<stop stop-color="#DBBC80"/>
<stop offset="1" stop-color="#AB8219"/>
</radialGradient>
<radialGradient id="paint9_radial_2_769" cx="0" cy="0" r="1" gradientUnits="userSpaceOnUse" gradientTransform="translate(30 76.5) rotate(90) scale(2.50001 2.00001)">
<stop stop-color="#DBBC80"/>
<stop offset="1" stop-color="#AB8219"/>
</radialGradient>
<radialGradient id="paint10_radial_2_769" cx="0" cy="0" r="1" gradientUnits="userSpaceOnUse" gradientTransform="translate(37 76.5) rotate(90) scale(2.50001 2.00001)">
<stop stop-color="#DBBC80"/>
<stop offset="1" stop-color="#AB8219"/>
</radialGradient>
<radialGradient id="paint11_radial_2_769" cx="0" cy="0" r="1" gradientUnits="userSpaceOnUse" gradientTransform="translate(44 76.5) rotate(90) scale(2.50001 2.00001)">
<stop stop-color="#DBBC80"/>
<stop offset="1" stop-color="#AB8219"/>
</radialGradient>
<radialGradient id="paint12_radial_2_769" cx="0" cy="0" r="1" gradientUnits="userSpaceOnUse" gradientTransform="translate(23.9999 3.5) rotate(90) scale(2.5 1.99996)">
<stop stop-color="#DBBC80"/>
<stop offset="1" stop-color="#AB8219"/>
</radialGradient>
<radialGradient id="paint13_radial_2_769" cx="0" cy="0" r="1" gradientUnits="userSpaceOnUse" gradientTransform="translate(29.9999 3.5) rotate(90) scale(2.5 1.99996)">
<stop stop-color="#DBBC80"/>
<stop offset="1" stop-color="#AB8219"/>
</radialGradient>
<radialGradient id="paint14_radial_2_769" cx="0" cy="0" r="1" gradientUnits="userSpaceOnUse" gradientTransform="translate(37 3.5) rotate(90) scale(2.5 2.00001)">
<stop stop-color="#DBBC80"/>
<stop offset="1" stop-color="#AB8219"/>
</radialGradient>
<radialGradient id="paint15_radial_2_769" cx="0" cy="0" r="1" gradientUnits="userSpaceOnUse" gradientTransform="translate(30.4999 23) rotate(-180) scale(17.4999 1.99998)">
<stop stop-color="#DBBC80"/>
<stop offset="1" stop-color="#AB8219"/>
</radialGradient>
<radialGradient id="paint16_radial_2_769" cx="0" cy="0" r="1" gradientUnits="userSpaceOnUse" gradientTransform="translate(30.5 63) rotate(-180) scale(17.5 1.99999)">
<stop stop-color="#DBBC80"/>
<stop offset="1" stop-color="#AB8219"/>
</radialGradient>
<radialGradient id="paint17_radial_2_769" cx="0" cy="0" r="1" gradientUnits="userSpaceOnUse" gradientTransform="translate(30.5 9.99999) rotate(-180) scale(17.5 1.99998)">
<stop stop-color="#DBBC80"/>
<stop offset="1" stop-color="#AB8219"/>
</radialGradient>
</defs>
</svg>
