<svg width="20" height="20" viewBox="0 0 20 20" fill="none" xmlns="http://www.w3.org/2000/svg">
<path d="M10 0C4.47641 0 0 4.47891 0 10C0 14.0929 2.47689 17.4512 6 19C5.97321 18.3037 5.82139 17.7587 6 17C6.19201 16.1877 7 11 7 11C7 11 7 10.9417 7 10C7 8.51819 7.92833 7 9 7C9.91087 7 10 8.18322 10 9C10 9.91498 10.2991 10.7324 10 12C9.74987 13.0623 9.9507 14 11 14C12.8933 14 14 11.8833 14 9C14 6.80853 12.6836 5 10 5C6.96809 5 5 7.47377 5 10C5 10.8703 5.59813 11.5268 6 12C6.18309 12.2186 6.06697 11.7501 6 12C5.95088 12.1829 6.04912 12.8215 6 13C5.93302 13.2544 5.22773 13.0937 5 13C3.60237 12.4287 3 11.7228 3 10C3 7.16135 5.24898 3 10 3C13.8178 3 17 6.03637 17 9C17 12.9233 14.2151 16 11 16C9.91943 16 9.34829 15.6606 9 15C9 15 8.12503 16.5536 8 17C7.79013 17.7721 7.37955 19.3975 7 20C7.92068 20.2716 9.0401 19.9992 10 20C15.5236 20 20 15.5211 20 10C20 4.47891 15.5235 0 10 0Z" fill="white"/>
</svg>
