<svg width="22" height="18" viewBox="0 0 22 18" fill="none" xmlns="http://www.w3.org/2000/svg">
<g clip-path="url(#clip0_2_868)">
<path d="M21 2.99959C20.2123 3.34594 19.8529 3.89678 19 3.99959C19.8963 3.46852 19.6747 1.99771 20 0.999593C19.1526 1.501 18.964 1.81245 18 1.99959C17.594 1.56907 16.5408 1.23324 16 0.999593C15.4591 0.765953 15.5881 0.998492 15 0.999593C12.6192 0.999593 10 2.63111 10 4.99959C9.9983 5.32904 9.9245 5.67913 10 5.99959C8.29273 5.91861 6.5293 5.77182 5 4.99959C3.4707 4.22737 2.09046 3.33132 1 1.99959C0.617431 2.6522 1.00093 3.24081 1 3.99959C1 5.48708 1.84193 7.22928 3 7.99959C2.31387 7.98312 1.60095 7.33503 1 6.99959C1 9.08032 2.03125 10.6057 4 10.9996C3.62979 11.0995 3.38315 10.9995 3 10.9996C2.72812 11.0001 2.26668 11.0531 2 10.9996C2.54731 12.7041 4.11306 13.9641 6 13.9996C4.46672 15.1953 2.93577 16.0044 1 15.9996C0.656401 15.9991 0.341235 16.0403 0 15.9996C1.96927 17.2721 4.66351 18.0061 7 17.9996C14.9346 17.9996 19 11.6707 19 5.99959C19 5.81366 19.0088 5.1811 19 4.99959C19.8414 4.394 20.4199 3.86381 21 2.99959Z" fill="white"/>
</g>
<defs>
<clipPath id="clip0_2_868">
<rect width="22" height="18" fill="white"/>
</clipPath>
</defs>
</svg>
